<svg width="24" height="24" viewBox="0 0 24 24" fill="none" xmlns="http://www.w3.org/2000/svg">
<path fill-rule="evenodd" clip-rule="evenodd" d="M21 11.6091C21 16.4177 16.9706 20.3159 12 20.3159C7.02944 20.3159 3 16.4177 3 11.6091C3 6.80041 7.02944 2.90222 12 2.90222C16.9706 2.90222 21 6.80041 21 11.6091ZM12 17.4462C11.4477 17.4462 11 16.9985 11 16.4462V12.6091H7C6.44771 12.6091 6 12.1613 6 11.6091C6 11.0568 6.44771 10.6091 7 10.6091H11V6.77193C11 6.21965 11.4477 5.77193 12 5.77193C12.5523 5.77193 13 6.21965 13 6.77193V10.6091H17C17.5523 10.6091 18 11.0568 18 11.6091C18 12.1613 17.5523 12.6091 17 12.6091H13V16.4462C13 16.9985 12.5523 17.4462 12 17.4462Z" fill="#222222"/>
</svg>
