<svg width="44" height="41" viewBox="0 0 44 41" fill="none" xmlns="http://www.w3.org/2000/svg">
<path d="M10 11.5C10 11.1022 10.158 10.7206 10.4393 10.4393C10.7206 10.158 11.1022 10 11.5 10H32.5C32.8978 10 33.2794 10.158 33.5607 10.4393C33.842 10.7206 34 11.1022 34 11.5V14.5C34 14.8978 33.842 15.2794 33.5607 15.5607C33.2794 15.842 32.8978 16 32.5 16V27.25C32.5 28.2446 32.1049 29.1984 31.4017 29.9017C30.6984 30.6049 29.7446 31 28.75 31H15.25C14.2554 31 13.3016 30.6049 12.5983 29.9017C11.8951 29.1984 11.5 28.2446 11.5 27.25V16C11.1022 16 10.7206 15.842 10.4393 15.5607C10.158 15.2794 10 14.8978 10 14.5V11.5ZM13 16V27.25C13 27.8467 13.2371 28.419 13.659 28.841C14.081 29.2629 14.6533 29.5 15.25 29.5H28.75C29.3467 29.5 29.919 29.2629 30.341 28.841C30.7629 28.419 31 27.8467 31 27.25V16H13ZM32.5 11.5H11.5V14.5H32.5V11.5ZM17.5 19.75C17.5 19.5511 17.579 19.3603 17.7197 19.2197C17.8603 19.079 18.0511 19 18.25 19H25.75C25.9489 19 26.1397 19.079 26.2803 19.2197C26.421 19.3603 26.5 19.5511 26.5 19.75C26.5 19.9489 26.421 20.1397 26.2803 20.2803C26.1397 20.421 25.9489 20.5 25.75 20.5H18.25C18.0511 20.5 17.8603 20.421 17.7197 20.2803C17.579 20.1397 17.5 19.9489 17.5 19.75Z" fill="black"/>
</svg>
