<svg width="48" height="48" viewBox="0 0 48 48" fill="none" xmlns="http://www.w3.org/2000/svg">
<g clip-path="url(#clip0_126_402)">
<path d="M42 0H6C4.4087 0 2.88258 0.632141 1.75736 1.75736C0.632141 2.88258 0 4.4087 0 6L0 42C0 43.5913 0.632141 45.1174 1.75736 46.2426C2.88258 47.3679 4.4087 48 6 48H42C43.5913 48 45.1174 47.3679 46.2426 46.2426C47.3679 45.1174 48 43.5913 48 42V6C48 4.4087 47.3679 2.88258 46.2426 1.75736C45.1174 0.632141 43.5913 0 42 0ZM3 11.571C3 10.152 4.344 9 6 9H42C43.656 9 45 10.152 45 11.571V42.429C45 43.848 43.656 45 42 45H6C4.344 45 3 43.848 3 42.429V11.571Z" fill="black"/>
<path d="M19.5 21C20.2956 21 21.0587 20.6839 21.6213 20.1213C22.1839 19.5587 22.5 18.7956 22.5 18C22.5 17.2044 22.1839 16.4413 21.6213 15.8787C21.0587 15.3161 20.2956 15 19.5 15C18.7044 15 17.9413 15.3161 17.3787 15.8787C16.8161 16.4413 16.5 17.2044 16.5 18C16.5 18.7956 16.8161 19.5587 17.3787 20.1213C17.9413 20.6839 18.7044 21 19.5 21ZM28.5 21C29.2956 21 30.0587 20.6839 30.6213 20.1213C31.1839 19.5587 31.5 18.7956 31.5 18C31.5 17.2044 31.1839 16.4413 30.6213 15.8787C30.0587 15.3161 29.2956 15 28.5 15C27.7044 15 26.9413 15.3161 26.3787 15.8787C25.8161 16.4413 25.5 17.2044 25.5 18C25.5 18.7956 25.8161 19.5587 26.3787 20.1213C26.9413 20.6839 27.7044 21 28.5 21ZM37.5 21C38.2956 21 39.0587 20.6839 39.6213 20.1213C40.1839 19.5587 40.5 18.7956 40.5 18C40.5 17.2044 40.1839 16.4413 39.6213 15.8787C39.0587 15.3161 38.2956 15 37.5 15C36.7044 15 35.9413 15.3161 35.3787 15.8787C34.8161 16.4413 34.5 17.2044 34.5 18C34.5 18.7956 34.8161 19.5587 35.3787 20.1213C35.9413 20.6839 36.7044 21 37.5 21ZM10.5 30C11.2956 30 12.0587 29.6839 12.6213 29.1213C13.1839 28.5587 13.5 27.7956 13.5 27C13.5 26.2044 13.1839 25.4413 12.6213 24.8787C12.0587 24.3161 11.2956 24 10.5 24C9.70435 24 8.94129 24.3161 8.37868 24.8787C7.81607 25.4413 7.5 26.2044 7.5 27C7.5 27.7956 7.81607 28.5587 8.37868 29.1213C8.94129 29.6839 9.70435 30 10.5 30ZM19.5 30C20.2956 30 21.0587 29.6839 21.6213 29.1213C22.1839 28.5587 22.5 27.7956 22.5 27C22.5 26.2044 22.1839 25.4413 21.6213 24.8787C21.0587 24.3161 20.2956 24 19.5 24C18.7044 24 17.9413 24.3161 17.3787 24.8787C16.8161 25.4413 16.5 26.2044 16.5 27C16.5 27.7956 16.8161 28.5587 17.3787 29.1213C17.9413 29.6839 18.7044 30 19.5 30ZM28.5 30C29.2956 30 30.0587 29.6839 30.6213 29.1213C31.1839 28.5587 31.5 27.7956 31.5 27C31.5 26.2044 31.1839 25.4413 30.6213 24.8787C30.0587 24.3161 29.2956 24 28.5 24C27.7044 24 26.9413 24.3161 26.3787 24.8787C25.8161 25.4413 25.5 26.2044 25.5 27C25.5 27.7956 25.8161 28.5587 26.3787 29.1213C26.9413 29.6839 27.7044 30 28.5 30ZM37.5 30C38.2956 30 39.0587 29.6839 39.6213 29.1213C40.1839 28.5587 40.5 27.7956 40.5 27C40.5 26.2044 40.1839 25.4413 39.6213 24.8787C39.0587 24.3161 38.2956 24 37.5 24C36.7044 24 35.9413 24.3161 35.3787 24.8787C34.8161 25.4413 34.5 26.2044 34.5 27C34.5 27.7956 34.8161 28.5587 35.3787 29.1213C35.9413 29.6839 36.7044 30 37.5 30ZM10.5 39C11.2956 39 12.0587 38.6839 12.6213 38.1213C13.1839 37.5587 13.5 36.7956 13.5 36C13.5 35.2044 13.1839 34.4413 12.6213 33.8787C12.0587 33.3161 11.2956 33 10.5 33C9.70435 33 8.94129 33.3161 8.37868 33.8787C7.81607 34.4413 7.5 35.2044 7.5 36C7.5 36.7956 7.81607 37.5587 8.37868 38.1213C8.94129 38.6839 9.70435 39 10.5 39ZM19.5 39C20.2956 39 21.0587 38.6839 21.6213 38.1213C22.1839 37.5587 22.5 36.7956 22.5 36C22.5 35.2044 22.1839 34.4413 21.6213 33.8787C21.0587 33.3161 20.2956 33 19.5 33C18.7044 33 17.9413 33.3161 17.3787 33.8787C16.8161 34.4413 16.5 35.2044 16.5 36C16.5 36.7956 16.8161 37.5587 17.3787 38.1213C17.9413 38.6839 18.7044 39 19.5 39ZM28.5 39C29.2956 39 30.0587 38.6839 30.6213 38.1213C31.1839 37.5587 31.5 36.7956 31.5 36C31.5 35.2044 31.1839 34.4413 30.6213 33.8787C30.0587 33.3161 29.2956 33 28.5 33C27.7044 33 26.9413 33.3161 26.3787 33.8787C25.8161 34.4413 25.5 35.2044 25.5 36C25.5 36.7956 25.8161 37.5587 26.3787 38.1213C26.9413 38.6839 27.7044 39 28.5 39Z" fill="black"/>
</g>
<defs>
<clipPath id="clip0_126_402">
<rect width="48" height="48" fill="white"/>
</clipPath>
</defs>
</svg>
