<svg width="48" height="48" viewBox="0 0 48 48" fill="none" xmlns="http://www.w3.org/2000/svg">
<path d="M48 24C48 30.3652 45.4714 36.4697 40.9706 40.9706C36.4697 45.4714 30.3652 48 24 48C17.6348 48 11.5303 45.4714 7.02944 40.9706C2.52856 36.4697 0 30.3652 0 24C0 17.6348 2.52856 11.5303 7.02944 7.02944C11.5303 2.52856 17.6348 0 24 0C30.3652 0 36.4697 2.52856 40.9706 7.02944C45.4714 11.5303 48 17.6348 48 24ZM24 10.5C24 10.1022 23.842 9.72064 23.5607 9.43934C23.2794 9.15804 22.8978 9 22.5 9C22.1022 9 21.7206 9.15804 21.4393 9.43934C21.158 9.72064 21 10.1022 21 10.5V27C21.0001 27.2644 21.0701 27.5241 21.2028 27.7527C21.3356 27.9814 21.5264 28.1709 21.756 28.302L32.256 34.302C32.6006 34.4882 33.0043 34.5323 33.381 34.4248C33.7576 34.3172 34.0772 34.0667 34.2715 33.7266C34.4659 33.3865 34.5195 32.9839 34.4209 32.6049C34.3223 32.2258 34.0794 31.9003 33.744 31.698L24 26.13V10.5Z" fill="black"/>
</svg>
