<svg width="40" height="40" viewBox="0 0 40 40" fill="none" xmlns="http://www.w3.org/2000/svg">
<path d="M29.9741 19.9828C29.9741 22.6326 28.9215 25.174 27.0477 27.0477C25.174 28.9215 22.6326 29.9741 19.9828 29.9741C17.3329 29.9741 14.7915 28.9215 12.9178 27.0477C11.044 25.174 9.99138 22.6326 9.99138 19.9828C9.99138 17.3329 11.044 14.7915 12.9178 12.9178C14.7915 11.044 17.3329 9.99138 19.9828 9.99138C22.6326 9.99138 25.174 11.044 27.0477 12.9178C28.9215 14.7915 29.9741 17.3329 29.9741 19.9828ZM19.9828 0C20.314 0 20.6317 0.131583 20.8659 0.365801C21.1001 0.600019 21.2317 0.917688 21.2317 1.24892V6.24461C21.2317 6.57585 21.1001 6.89352 20.8659 7.12773C20.6317 7.36195 20.314 7.49354 19.9828 7.49354C19.6515 7.49354 19.3339 7.36195 19.0996 7.12773C18.8654 6.89352 18.7338 6.57585 18.7338 6.24461V1.24892C18.7338 0.917688 18.8654 0.600019 19.0996 0.365801C19.3339 0.131583 19.6515 0 19.9828 0ZM19.9828 32.472C20.314 32.472 20.6317 32.6036 20.8659 32.8378C21.1001 33.072 21.2317 33.3897 21.2317 33.7209V38.7166C21.2317 39.0478 21.1001 39.3655 20.8659 39.5997C20.6317 39.8339 20.314 39.9655 19.9828 39.9655C19.6515 39.9655 19.3339 39.8339 19.0996 39.5997C18.8654 39.3655 18.7338 39.0478 18.7338 38.7166V33.7209C18.7338 33.3897 18.8654 33.072 19.0996 32.8378C19.3339 32.6036 19.6515 32.472 19.9828 32.472ZM39.9655 19.9828C39.9655 20.314 39.8339 20.6317 39.5997 20.8659C39.3655 21.1001 39.0478 21.2317 38.7166 21.2317H33.7209C33.3897 21.2317 33.072 21.1001 32.8378 20.8659C32.6036 20.6317 32.472 20.314 32.472 19.9828C32.472 19.6515 32.6036 19.3339 32.8378 19.0996C33.072 18.8654 33.3897 18.7338 33.7209 18.7338H38.7166C39.0478 18.7338 39.3655 18.8654 39.5997 19.0996C39.8339 19.3339 39.9655 19.6515 39.9655 19.9828ZM7.49354 19.9828C7.49354 20.314 7.36195 20.6317 7.12773 20.8659C6.89352 21.1001 6.57585 21.2317 6.24461 21.2317H1.24892C0.917688 21.2317 0.600019 21.1001 0.365801 20.8659C0.131583 20.6317 0 20.314 0 19.9828C0 19.6515 0.131583 19.3339 0.365801 19.0996C0.600019 18.8654 0.917688 18.7338 1.24892 18.7338H6.24461C6.57585 18.7338 6.89352 18.8654 7.12773 19.0996C7.36195 19.3339 7.49354 19.6515 7.49354 19.9828ZM34.1131 5.85245C34.3472 6.08666 34.4787 6.40427 34.4787 6.73544C34.4787 7.06661 34.3472 7.38422 34.1131 7.61843L30.5811 11.1529C30.465 11.2688 30.3272 11.3608 30.1755 11.4235C30.0239 11.4862 29.8613 11.5184 29.6972 11.5183C29.3658 11.518 29.0481 11.3861 28.8139 11.1516C28.6979 11.0355 28.606 10.8977 28.5433 10.746C28.4806 10.5944 28.4484 10.4319 28.4485 10.2678C28.4487 9.93634 28.5806 9.61859 28.8151 9.3844L32.3471 5.85245C32.5813 5.61831 32.8989 5.48678 33.2301 5.48678C33.5612 5.48678 33.8789 5.61831 34.1131 5.85245ZM11.1504 28.8151C11.3845 29.0493 11.516 29.367 11.516 29.6981C11.516 30.0293 11.3845 30.3469 11.1504 30.5811L7.61843 34.1131C7.38288 34.3406 7.0674 34.4665 6.73993 34.4636C6.41247 34.4608 6.09923 34.3294 5.86766 34.0979C5.6361 33.8663 5.50476 33.553 5.50191 33.2256C5.49906 32.8981 5.62495 32.5826 5.85245 32.3471L9.3844 28.8151C9.61861 28.581 9.93622 28.4495 10.2674 28.4495C10.5986 28.4495 10.9162 28.581 11.1504 28.8151ZM34.1131 34.1131C33.8789 34.3472 33.5612 34.4787 33.2301 34.4787C32.8989 34.4787 32.5813 34.3472 32.3471 34.1131L28.8151 30.5811C28.5876 30.3456 28.4618 30.0301 28.4646 29.7026C28.4674 29.3752 28.5988 29.0619 28.8304 28.8304C29.0619 28.5988 29.3752 28.4674 29.7026 28.4646C30.0301 28.4618 30.3456 28.5876 30.5811 28.8151L34.1131 32.3471C34.3472 32.5813 34.4787 32.8989 34.4787 33.2301C34.4787 33.5612 34.3472 33.8789 34.1131 34.1131ZM11.1504 11.1529C10.9162 11.387 10.5986 11.5185 10.2674 11.5185C9.93622 11.5185 9.61861 11.387 9.3844 11.1529L5.85245 7.61843C5.73317 7.50322 5.63802 7.36541 5.57257 7.21303C5.50711 7.06066 5.47266 6.89678 5.47122 6.73094C5.46978 6.56511 5.50138 6.40066 5.56417 6.24717C5.62697 6.09368 5.71971 5.95424 5.83697 5.83697C5.95424 5.71971 6.09368 5.62697 6.24717 5.56417C6.40066 5.50138 6.56511 5.46978 6.73094 5.47122C6.89678 5.47266 7.06066 5.50711 7.21303 5.57257C7.36541 5.63802 7.50322 5.73317 7.61843 5.85245L11.1504 9.3844C11.2667 9.50042 11.359 9.63824 11.4219 9.78997C11.4849 9.9417 11.5173 10.1044 11.5173 10.2686C11.5173 10.4329 11.4849 10.5956 11.4219 10.7473C11.359 10.899 11.2667 11.0369 11.1504 11.1529Z" fill="black"/>
</svg>
