<svg width="24" height="23" viewBox="0 0 24 23" fill="none" xmlns="http://www.w3.org/2000/svg">
<g clip-path="url(#clip0_258_238)">
<path d="M21.5 4.5C21.5 4.89782 21.342 5.27936 21.0607 5.56066C20.7794 5.84196 20.3978 6 20 6H19.25V19.5C19.25 20.2956 18.9339 21.0587 18.3713 21.6213C17.8087 22.1839 17.0456 22.5 16.25 22.5H7.25C6.45435 22.5 5.69129 22.1839 5.12868 21.6213C4.56607 21.0587 4.25 20.2956 4.25 19.5V6H3.5C3.10218 6 2.72064 5.84196 2.43934 5.56066C2.15804 5.27936 2 4.89782 2 4.5V3C2 2.60218 2.15804 2.22064 2.43934 1.93934C2.72064 1.65804 3.10218 1.5 3.5 1.5H8.75C8.75 1.10218 8.90804 0.720644 9.18934 0.43934C9.47064 0.158035 9.85218 0 10.25 0L13.25 0C13.6478 0 14.0294 0.158035 14.3107 0.43934C14.592 0.720644 14.75 1.10218 14.75 1.5H20C20.3978 1.5 20.7794 1.65804 21.0607 1.93934C21.342 2.22064 21.5 2.60218 21.5 3V4.5ZM5.927 6L5.75 6.0885V19.5C5.75 19.8978 5.90804 20.2794 6.18934 20.5607C6.47064 20.842 6.85218 21 7.25 21H16.25C16.6478 21 17.0294 20.842 17.3107 20.5607C17.592 20.2794 17.75 19.8978 17.75 19.5V6.0885L17.573 6H5.927ZM3.5 4.5H20V3H3.5V4.5Z" fill="black"/>
<path d="M8.07812 7.73438C8.27289 7.73438 8.45968 7.80845 8.59741 7.94032C8.73513 8.07218 8.8125 8.25102 8.8125 8.4375V16.875C8.8125 17.0615 8.73513 17.2403 8.59741 17.3722C8.45968 17.504 8.27289 17.5781 8.07812 17.5781C7.88336 17.5781 7.69657 17.504 7.55884 17.3722C7.42112 17.2403 7.34375 17.0615 7.34375 16.875V8.4375C7.34375 8.25102 7.42112 8.07218 7.55884 7.94032C7.69657 7.80845 7.88336 7.73438 8.07812 7.73438ZM11.75 7.73438C11.9448 7.73438 12.1316 7.80845 12.2693 7.94032C12.407 8.07218 12.4844 8.25102 12.4844 8.4375V16.875C12.4844 17.0615 12.407 17.2403 12.2693 17.3722C12.1316 17.504 11.9448 17.5781 11.75 17.5781C11.5552 17.5781 11.3684 17.504 11.2307 17.3722C11.093 17.2403 11.0156 17.0615 11.0156 16.875V8.4375C11.0156 8.25102 11.093 8.07218 11.2307 7.94032C11.3684 7.80845 11.5552 7.73438 11.75 7.73438ZM16.1562 8.4375C16.1562 8.25102 16.0789 8.07218 15.9412 7.94032C15.8034 7.80845 15.6166 7.73438 15.4219 7.73438C15.2271 7.73438 15.0403 7.80845 14.9026 7.94032C14.7649 8.07218 14.6875 8.25102 14.6875 8.4375V16.875C14.6875 17.0615 14.7649 17.2403 14.9026 17.3722C15.0403 17.504 15.2271 17.5781 15.4219 17.5781C15.6166 17.5781 15.8034 17.504 15.9412 17.3722C16.0789 17.2403 16.1562 17.0615 16.1562 16.875V8.4375Z" fill="black"/>
</g>
<defs>
<clipPath id="clip0_258_238">
<rect width="23.5" height="22.5" fill="white"/>
</clipPath>
</defs>
</svg>
