<svg width="18" height="18" viewBox="0 0 24 24" fill="none" xmlns="http://www.w3.org/2000/svg">
<path d="M20.6241 0.767625L20.8518 0.539959C21.0232 0.3687 21.2266 0.232869 21.4504 0.140223C21.6743 0.047577 21.9142 -7.08631e-05 22.1565 7.91019e-08C22.3987 7.10213e-05 22.6386 0.0478594 22.8624 0.140637C23.0862 0.233414 23.2895 0.369363 23.4608 0.540723C23.6321 0.712082 23.7679 0.915495 23.8605 1.13935C23.9532 1.3632 24.0008 1.60311 24.0008 1.84538C24.0007 2.08765 23.9529 2.32753 23.8601 2.55133C23.7673 2.77512 23.6314 2.97846 23.46 3.14972L23.2324 3.37586C23.6218 3.81264 23.8295 4.38185 23.8127 4.96681C23.7959 5.55177 23.5561 6.10816 23.1422 6.52193L7.41644 22.2492C7.31814 22.347 7.19507 22.4162 7.06043 22.4494L0.948583 23.9774C0.820681 24.0092 0.686715 24.0074 0.559706 23.9722C0.432697 23.9369 0.316967 23.8694 0.223765 23.7762C0.130563 23.683 0.0630592 23.5673 0.0278161 23.4403C-0.00742692 23.3133 -0.00921066 23.1793 0.0226383 23.0514L1.5506 16.9396C1.58403 16.8055 1.65321 16.683 1.75076 16.5851L16.4834 1.85248C16.336 1.74877 16.1568 1.70049 15.9773 1.71614C15.7978 1.7318 15.6296 1.8104 15.5024 1.93804L10.4724 6.96962C10.4013 7.04065 10.317 7.097 10.2242 7.13544C10.1314 7.17388 10.0319 7.19367 9.93147 7.19367C9.83102 7.19367 9.73154 7.17388 9.63874 7.13544C9.54593 7.097 9.4616 7.04065 9.39057 6.96962C9.31954 6.89859 9.26319 6.81426 9.22475 6.72146C9.18631 6.62865 9.16652 6.52918 9.16652 6.42872C9.16652 6.32827 9.18631 6.2288 9.22475 6.13599C9.26319 6.04318 9.31954 5.95886 9.39057 5.88782L14.4237 0.857775C14.8377 0.44372 15.3945 0.203839 15.9798 0.187359C16.5652 0.170879 17.1346 0.379051 17.5713 0.769153C17.9911 0.393945 18.5344 0.186407 19.0974 0.186125C19.6605 0.185843 20.2039 0.392837 20.6241 0.767625ZM19.6401 1.93804C19.4969 1.79482 19.3026 1.71436 19.1 1.71436C18.8974 1.71436 18.7031 1.79482 18.5599 1.93804L2.97924 17.5156L1.81188 22.1866L6.48286 21.0192L22.0635 5.44166C22.1346 5.37069 22.1911 5.28639 22.2296 5.19357C22.2681 5.10075 22.2879 5.00125 22.2879 4.90076C22.2879 4.80027 22.2681 4.70077 22.2296 4.60795C22.1911 4.51514 22.1346 4.43083 22.0635 4.35986L19.6401 1.93804Z" fill="black"/>
</svg>
